<svg id="Layer_1" xmlns="http://www.w3.org/2000/svg" width="100" height="30"><style>.st0{fill:#ec2127}.st1{fill:#f89620}</style><path class="st0" d="M89 11.7h.4c.1 0 .1-.1.1-.2s0-.1-.1-.2H89v.4zm0 .8h-.3V11h.6c.1 0 .3 0 .4.1s.2.2.2.4-.1.3-.2.4l.3.7h-.4l-.2-.6H89v.5zm.2.5c.7 0 1.3-.5 1.3-1.2s-.5-1.3-1.2-1.3-1.3.5-1.3 1.2c0 .8.5 1.3 1.2 1.3zm-1.6-1.2c0-.9.8-1.6 1.7-1.5.9 0 1.6.8 1.5 1.7 0 .8-.7 1.5-1.6 1.5-.9-.1-1.6-.8-1.6-1.7zM64.9.7l-.4 2.8c-.7-.4-1.5-.7-2.4-.7-2 0-3.4 2-3.4 4.9 0 2 .9 3.2 2.5 3.2.8 0 1.6-.3 2.3-.7l-.5 3c-.8.2-1.6.4-2.3.4-2.9 0-4.7-2.2-4.7-5.6 0-4.7 2.5-7.9 6-7.9.4 0 .8 0 1.2.1l1.1.3c.3 0 .3.1.6.2zM56 2.6h-.3c-.9 0-1.4.5-2.2 1.7l.2-1.6h-2.4l-1.6 10.6h2.7c1-6.5 1.2-7.6 2.5-7.6h.2c.2-1.1.5-2.1.9-3.1zM40.1 13.2c-.6.2-1.3.3-1.9.4-1.4 0-2.1-.8-2.1-2.3 0-.3 0-.6.1-1l.2-1 .1-.8 1.2-7.2h2.6L40 2.9h1.4L41 5.3h-1.4l-.7 4.5v.4c0 .5.3.8.9.8.3 0 .5 0 .8-.1l-.5 2.3zM29.6 6c0 1.3.8 2.5 2 2.9 1.1.5 1.2.7 1.2 1.2 0 .7-.5 1-1.5 1-.8 0-1.6-.1-2.4-.4l-.4 2.4h.1l.5.1c.2 0 .4.1.7.1.6.1 1.1.1 1.5.1 2.8 0 4.1-1.1 4.1-3.5.1-1.3-.7-2.5-1.9-3-1.1-.5-1.2-.7-1.2-1.1s.4-.9 1.3-.9c.7.1 1.4.1 2 .2l.4-2.5c-.8-.1-1.6-.2-2.3-.2-3 .1-4.1 1.7-4.1 3.6zM82.1 10.8c1.2 0 2.1-1.5 2.1-3.6 0-1.4-.5-2.1-1.4-2.1-1.2 0-2.1 1.5-2.1 3.6.1 1.4.5 2.1 1.4 2.1zm3.9 2.5h-2.5l.1-1c-.6.8-1.5 1.2-2.5 1.2-1.9 0-3.2-1.7-3.2-4.4 0-3.5 2-6.5 4.3-6.5 1 0 2 .6 2.6 1.5l.6-3.8H88l-2 13zM47.1 6.7v-.5c.1-.7-.4-1.3-1-1.4h-.2c-.8 0-1.4.7-1.7 1.9h2.9zm1.5 6.4c-.9.3-1.8.4-2.7.4-3 0-4.5-1.6-4.5-4.8 0-3.6 2-6.3 4.6-6.3 2.2 0 3.6 1.5 3.6 3.9 0 .9-.1 1.8-.3 2.6H44v.3c0 1.2.8 1.9 2.3 1.9 1 0 1.9-.2 2.8-.7l-.5 2.7zM19 13.3h-2.7l1.5-10-3.4 10h-1.8l-.2-10-1.6 10H8.3l2.1-13h3.8l.1 8 2.6-8H21zM27.7 13.3h-2.2v-1.1c-.7.9-1.7 1.3-2.8 1.3-1.4 0-2.4-1.2-2.4-2.9C20.3 8 22 6.5 25 6.5c.4 0 .7 0 1.1.1.1-.2.1-.5.1-.7 0-.7-.5-1-1.7-1-.7 0-1.5.1-2.2.3l-.4.1-.2.1.4-2.4c1-.4 2.1-.6 3.2-.6 2.3 0 3.5 1.1 3.5 3.1 0 .7-.1 1.4-.2 2.1l-.6 3.8-.1.7-.1.5v.4l-.1.3zm-1.9-4.7h-.6c-1.5 0-2.3.5-2.3 1.6-.1.5.3 1 .8 1.1h.1c1.2-.1 2-1.2 2-2.7zM71.4 13.3h-2.2l.1-1.1c-.7.9-1.7 1.3-2.8 1.3-1.4 0-2.4-1.2-2.4-2.9 0-2.6 1.7-4.1 4.7-4.1.4 0 .7 0 1.1.1.1-.2.1-.5.1-.7 0-.7-.5-1-1.7-1-.7 0-1.5.1-2.2.3l-.4.1-.2.1.2-2.4c1-.4 2.1-.6 3.2-.6 2.3 0 3.5 1.1 3.5 3.1 0 .7-.1 1.4-.2 2.1l-.6 3.8-.1.7-.1.5v.7zm-1.9-4.7h-.6c-1.5 0-2.3.5-2.3 1.6-.1.5.3 1 .8 1.1h.1c1.1-.1 1.9-1.2 2-2.7zM78.8 2.6h-.3c-.9 0-1.4.5-2.2 1.7l.2-1.6h-2.4l-1.6 10.6h2.7c1-6.5 1.2-7.6 2.5-7.6h.2c.2-1.1.5-2.1.9-3.1z"/><path class="st1" d="M70.3 23.6c0-2.7-1.3-4.8-3.8-4.8-2.9 0-4.7 2.5-4.7 6.3 0 2.7 1.1 4.8 3.8 4.8 2.7 0 4.7-1.8 4.7-6.3zm-2.7 0c0 2.4-.8 3.8-1.9 3.8-.9 0-1.4-.9-1.4-2.4 0-1.7.8-3.6 2-3.6 1 .1 1.4 1.1 1.3 2.2zM62.6 17l-.4 2.8c-.7-.4-1.5-.7-2.3-.7-1.9 0-3.2 2-3.2 4.9 0 2 .9 3.2 2.3 3.2.8 0 1.5-.3 2.1-.7l-.4 3c-.7.2-1.5.4-2.2.4-2.7 0-4.3-2.2-4.3-5.6 0-4.7 2.3-7.9 5.6-7.9.4 0 .8 0 1.1.1l1 .3c.4.1.5.1.7.2zM46.2 19h-.3c-.8 0-1.3.5-2 1.7l.2-1.6h-2.3l-1.5 10.6h2.5c.9-6.5 1.1-7.6 2.3-7.6h.2c.2-1.1.5-2.1.9-3.1zM74.9 27.1c1.2 0 2-1.5 2-3.6 0-1.4-.5-2.1-1.3-2.1-1.1 0-1.9 1.5-1.9 3.6 0 1.3.4 2.1 1.2 2.1zm3.7 2.4h-2.3l.1-1c-.5.7-1.4 1.2-2.3 1.2-1.8 0-3-1.7-3-4.4 0-3.5 1.9-6.5 4-6.5 1 0 1.9.6 2.4 1.5l.5-3.8h2.4l-1.8 13zM21.5 23.2v-.5c0-.9-.4-1.4-1.2-1.4-.7 0-1.4.7-1.6 1.9h2.8zm1.4 6.3c-.8.3-1.7.4-2.5.4-2.8 0-4.2-1.6-4.2-4.8 0-3.6 1.8-6.3 4.3-6.3 2 0 3.4 1.5 3.4 3.9 0 .9-.1 1.8-.3 2.6h-4.9v.3c0 1.2.8 1.9 2.2 1.9.9 0 1.8-.2 2.6-.7l-.6 2.7zM51 23.2v-.5c0-.9-.4-1.4-1.2-1.4s-1.4.7-1.6 1.9H51zm1.4 6.3c-.8.3-1.7.4-2.5.4-2.8 0-4.2-1.6-4.2-4.8 0-3.6 1.8-6.3 4.3-6.3 2 0 3.4 1.5 3.4 3.9 0 .9-.1 1.8-.3 2.6h-4.9v.3c0 1.2.8 1.9 2.2 1.9.9 0 1.8-.2 2.6-.7l-.6 2.7zM85.7 23.2v-.5c0-.9-.4-1.4-1.2-1.4s-1.4.7-1.6 1.9h2.8zm1.4 6.3c-.8.3-1.7.4-2.6.4-2.8 0-4.2-1.6-4.2-4.8 0-3.6 1.8-6.3 4.3-6.3 2 0 3.3 1.5 3.3 3.9 0 .9-.1 1.8-.3 2.6h-4.9v.3c0 1.2.8 1.9 2.2 1.9.9 0 1.8-.2 2.6-.7l-.4 2.7zM15.5 19.4c-.6-.4-1.3-.6-2.1-.6-1 0-1.8.2-1.8 1.3 0 1.9 3.7 1.2 3.7 5.3 0 3.7-2.4 4.6-4.6 4.6-1-.1-2-.3-2.9-.7l.6-2.7c.7.5 1.5.8 2.3.8s2-.2 2-1.6c0-2.1-3.7-1.3-3.7-5.1 0-3.4 2.1-4.4 4.2-4.4 1-.1 2 .1 2.9.6l-.6 2.5zM30.1 29.5c-.7.3-1.4.4-2.2.4-2.2 0-3.5-2.2-3.5-4.8 0-3.5 2-6.2 4.8-6.2.8.1 1.6.3 2.3.7l-.5 2.5c-.5-.4-1.1-.6-1.7-.6-1.3 0-2.3 1.2-2.3 3.4 0 1.3.7 2.3 1.8 2.3.6 0 1.1-.1 1.6-.4l-.3 2.7zM39.4 26.8c-.1.9-.2 1.8-.3 2.8h-2.4l.2-1.7c-.8 1.2-1.5 2-2.9 2-1.5 0-2.3-1.6-2.3-3.6 0-.8.1-1.5.2-2.3l.7-4.9h2.7l-.8 5c-.1.5-.1 1.1-.2 1.6 0 .6.3 1.3 1 1.2 1.1 0 1.7-1.3 1.9-2.9l.8-4.9h2.6l-1.2 7.7zM89.6 29.5h-.5v-1.8h-.5v-.4h1.5v.4h-.5zM92.2 29.5h-.4v-1.8l-.3 1.8h-.4l-.4-1.8v1.8h-.3v-2.2h.5l.4 1.7.3-1.7h.6z"/></svg>