<svg width="64" height="18" viewBox="0 0 116 32" xmlns="http://www.w3.org/2000/svg"><g fill-rule="nonzero" fill="none"><path d="M79.25 8.75c-.45 3.3-3 3.3-5.4 3.3H72.5l.9-6a.69.69 0 0 1 .75-.6h.6c1.65 0 3.15 0 3.9.9.614.636.843 1.55.6 2.4M78.2.35h-9A1.155 1.155 0 0 0 68 1.4l-3.6 23.1a.84.84 0 0 0 .75.9h4.65a.945.945 0 0 0 .9-.75l1.05-6.6a1.275 1.275 0 0 1 1.2-1.05h2.85c5.85 0 9.3-2.85 10.2-8.55a6.69 6.69 0 0 0-1.2-5.85A8.565 8.565 0 0 0 78.2.35" fill="#0079C1"/><path d="M15.05 8.75c-.45 3.3-3 3.3-5.4 3.3h-1.2l.9-6a.69.69 0 0 1 .75-.6h.6c1.65 0 3.15 0 3.9.9.631.63.81 1.584.45 2.4M14 .35H5A1.155 1.155 0 0 0 3.8 1.4L.2 24.5a.75.75 0 0 0 .75.9H5.3a1.155 1.155 0 0 0 1.2-1.05l1.05-6.3A1.275 1.275 0 0 1 8.75 17h2.85c5.85 0 9.3-2.85 10.2-8.55a6.69 6.69 0 0 0-1.2-5.85C19.4 1.1 17 .35 14 .35M34.85 17a4.83 4.83 0 0 1-4.8 4.05 3.615 3.615 0 0 1-2.85-1.2 3.96 3.96 0 0 1-.75-3 4.965 4.965 0 0 1 4.8-4.2 3.615 3.615 0 0 1 2.85 1.2 3.51 3.51 0 0 1 .75 3.15m6-8.4H36.5c-.3 0-.75.3-.75.6l-.15 1.2-.3-.45c-.9-1.35-3-1.8-5.1-1.8a9.825 9.825 0 0 0-9.6 8.7 7.695 7.695 0 0 0 1.65 6.6 6.915 6.915 0 0 0 5.4 2.25 8.295 8.295 0 0 0 6-2.4l-.15 1.2a.84.84 0 0 0 .75.9h3.9a1.155 1.155 0 0 0 1.2-1.05l2.25-14.7a.765.765 0 0 0-.75-1.05" fill="#00457C"/><path d="M99.05 17a4.83 4.83 0 0 1-4.8 4.05 3.615 3.615 0 0 1-2.85-1.2 3.96 3.96 0 0 1-.75-3 4.965 4.965 0 0 1 4.8-4.2 3.615 3.615 0 0 1 2.85 1.2 4.71 4.71 0 0 1 .75 3.15m6-8.4h-4.35c-.3 0-.75.3-.75.6l-.15 1.2-.3-.45c-.9-1.35-3-1.8-5.1-1.8a9.825 9.825 0 0 0-9.6 8.7 7.695 7.695 0 0 0 1.65 6.6 6.915 6.915 0 0 0 5.4 2.25 8.295 8.295 0 0 0 6-2.4l-.15 1.2a.75.75 0 0 0 .75.9h3.9a1.155 1.155 0 0 0 1.2-1.05l2.4-14.7c-.15-.6-.45-1.05-.9-1.05" fill="#0079C1"/><path d="M63.8 8.6h-4.35a1.125 1.125 0 0 0-1.05.6l-6 8.85-2.55-8.4a1.14 1.14 0 0 0-1.2-.9H44.6a.81.81 0 0 0-.75 1.05l4.8 13.95-4.5 6.3a.78.78 0 0 0 .6 1.2h4.35c.437.021.846-.213 1.05-.6L64.55 9.8a.855.855 0 0 0-.75-1.2" fill="#00457C"/><path d="M110 .95l-3.75 23.55a.75.75 0 0 0 .75.9h3.75a1.155 1.155 0 0 0 1.2-1.05l3.6-23.1a.84.84 0 0 0-.75-.9h-4.2c-.15 0-.45.3-.6.6" fill="#0079C1"/></g></svg>
