<svg id="Layer_1" xmlns="http://www.w3.org/2000/svg" viewBox="0 0 198 198"><style>.st0{fill:#fff}.st1{fill:#1a1f71}</style><path class="st0" d="M0 0h198v198H0z"/><path class="st1" d="M0 99h198v99H0zM78.28 27.68L59.64 72.14H47.48l-9.17-35.48c-.56-2.18-1.04-2.98-2.73-3.91-2.77-1.5-7.33-2.91-11.35-3.78l.27-1.29h19.57c2.49 0 4.74 1.66 5.31 4.53l4.84 25.73 11.97-30.26h12.09zm47.63 29.95c.05-11.73-16.22-12.38-16.11-17.63.04-1.59 1.55-3.29 4.88-3.72 1.65-.21 6.19-.38 11.34 1.99l2.02-9.43c-2.77-1-6.33-1.96-10.76-1.96-11.37 0-19.37 6.04-19.43 14.7-.07 6.4 5.71 9.97 10.07 12.1 4.49 2.18 5.99 3.58 5.97 5.52-.03 2.98-3.58 4.3-6.88 4.35-5.79.09-9.14-1.56-11.81-2.81l-2.09 9.75c2.69 1.23 7.65 2.3 12.79 2.36 12.07-.01 19.98-5.98 20.01-15.22m30.03 14.51h10.64l-9.29-44.46h-9.81c-2.21 0-4.07 1.28-4.9 3.26l-17.26 41.2h12.08l2.4-6.64h14.76l1.38 6.64zM143.1 56.39l6.06-16.7 3.48 16.7h-9.54zM94.71 27.68L85.2 72.14H73.7l9.51-44.46h11.5z"/><path class="st0" d="M46.13 153.83c1.3.77 3.33 1.43 5.43 1.43 2.6 0 4.06-1.23 4.06-3.06 0-1.7-1.13-2.7-3.96-3.73-3.73-1.3-6.1-3.3-6.1-6.5 0-3.7 3.06-6.46 7.96-6.46 2.43 0 4.2.53 5.36 1.1l-.97 3.33c-.83-.43-2.4-1.07-4.5-1.07-2.6 0-3.7 1.37-3.7 2.7 0 1.73 1.3 2.53 4.3 3.66 3.9 1.5 5.76 3.46 5.76 6.66 0 3.63-2.73 6.73-8.49 6.73-2.4 0-4.86-.67-6.1-1.4l.95-3.39zM75.71 148.33h-8.46v6.6h9.46v3.36H63.15v-22.45h13.06v3.36h-8.96v5.8h8.46v3.33zM96.06 157.63c-.97.47-3.1 1-5.83 1-7.13 0-11.46-4.46-11.46-11.29 0-7.39 5.16-11.83 12.02-11.83 2.7 0 4.6.53 5.43.97l-.87 3.26c-1.07-.47-2.56-.87-4.4-.87-4.56 0-7.86 2.87-7.86 8.26 0 4.93 2.86 8.06 7.83 8.06 1.63 0 3.36-.33 4.46-.8l.68 3.24zM103.3 135.84v13.09c0 4.4 1.83 6.43 4.6 6.43 2.96 0 4.73-2.03 4.73-6.43v-13.09h4.1v12.82c0 6.93-3.56 9.99-8.96 9.99-5.2 0-8.56-2.9-8.56-9.96v-12.86h4.09zM121.09 136.18c1.56-.3 3.83-.5 6.2-.5 3.23 0 5.4.53 6.93 1.8 1.23 1.03 1.93 2.6 1.93 4.53 0 2.9-1.96 4.86-4.1 5.6v.1c1.63.6 2.6 2.17 3.13 4.33.73 2.8 1.33 5.4 1.77 6.26h-4.2c-.33-.67-.9-2.5-1.5-5.3-.67-2.93-1.7-3.86-4.03-3.93h-2.07v9.23h-4.06v-22.12zm4.06 9.89h2.43c2.77 0 4.46-1.47 4.46-3.7 0-2.43-1.7-3.6-4.36-3.6-1.3 0-2.13.1-2.53.2v7.1zM152.27 148.33h-8.46v6.6h9.46v3.36h-13.56v-22.45h13.06v3.36h-8.96v5.8h8.46v3.33z"/></svg>