<?xml version="1.0" encoding="utf-8"?>
<!-- Generator: Adobe Illustrator 22.1.0, SVG Export Plug-In . SVG Version: 6.00 Build 0)  -->
<svg version="1.1" id="Laag_1" xmlns="http://www.w3.org/2000/svg" xmlns:xlink="http://www.w3.org/1999/xlink" x="0px" y="0px"
	 viewBox="0 0 67 32" style="enable-background:new 0 0 67 32;" xml:space="preserve">
<style type="text/css">
	.st0{fill:#56B2E7;}
</style>
<title></title>
<desc></desc>
<g id="Page-1">
	<g id="_x30_22-Motor-Boat">
		<path id="Fill-83" class="st0" d="M41.3,28.7c11.8,0,21.8-5.6,24.8-13.2L3,22.9l1.5,5c0,0,0,0,0,0.1c0,0,0,0.1,0.1,0.1
			c0,0.1,0.1,0.1,0.1,0.2c0,0,0.1,0.1,0.1,0.1c0.1,0.1,0.1,0.1,0.2,0.2c0,0,0.1,0,0.1,0.1c0.1,0,0.3,0.1,0.4,0.1h0H41.3"/>
		<path id="Fill-84" class="st0" d="M2.6,14l4.1-0.6V16l-3.4,0.4L2.6,14z M8.9,13.1l4.5-0.6v2.7c0,0,0,0,0,0l-4.5,0.5V13.1z
			 M22.1,6.3l10.3-0.5l1.1,7.4l-10.1,1.1V8.6c0,0,0-0.1,0-0.1c0-0.1,0-0.1,0-0.2c0-0.1,0-0.1-0.1-0.2c0,0,0-0.1,0-0.1L22.1,6.3z
			 M35.7,12.9C35.7,12.9,35.7,12.9,35.7,12.9l-1-7.3L43,5.3l4.6,6.4L35.7,12.9L35.7,12.9z M0,13.1c0,0,0,0.1,0,0.1c0,0,0,0.1,0,0.1
			c0,0,0,0.1,0,0.1l2.3,7.3l64.5-7.5c0.1-0.8,0.2-1.6,0.2-2.4c0,0,0,0,0-0.1c0,0,0,0,0-0.1c0-0.1,0-0.1,0-0.2c0-0.1,0-0.1-0.1-0.2
			c0-0.1-0.1-0.1-0.1-0.2c0-0.1-0.1-0.1-0.1-0.2c0,0-0.1-0.1-0.2-0.1c-0.1,0-0.1-0.1-0.2-0.1c-0.1,0-0.1,0-0.2,0c-0.1,0-0.1,0-0.2,0
			c0,0,0,0-0.1,0s0,0-0.1,0l-15.7,1.7c0,0,0-0.1,0-0.1l-5.6-7.8c0,0-0.1-0.1-0.1-0.1c0,0-0.1-0.1-0.1-0.1c-0.1-0.1-0.2-0.1-0.3-0.2
			c0,0-0.1,0-0.1,0c-0.1,0-0.2,0-0.3,0c0,0-0.1,0-0.1,0L20,4.1c0,0,0,0-0.1,0c-0.1,0-0.1,0-0.2,0.1c-0.1,0-0.1,0-0.2,0.1
			c0,0,0,0-0.1,0c0,0-0.1,0.1-0.1,0.1c-0.1,0.1-0.1,0.1-0.2,0.2c0,0.1-0.1,0.1-0.1,0.2c0,0.1-0.1,0.1-0.1,0.2c0,0.1,0,0.1,0,0.2
			c0,0,0,0.1,0,0.1c0,0,0,0.1,0,0.1c0,0.1,0,0.1,0.1,0.2c0,0.1,0,0.1,0.1,0.2c0,0,0,0.1,0,0.1l2,3.1v5.6l-5.6,0.6v-2.8l2.4-0.3
			c0.6-0.1,1-0.6,1-1.3c-0.1-0.6-0.7-1-1.3-1L1,11.9c0,0-0.1,0-0.1,0s-0.1,0-0.1,0c0,0-0.1,0-0.1,0.1c-0.1,0-0.1,0.1-0.2,0.1
			c-0.1,0-0.1,0.1-0.2,0.1c-0.1,0.1-0.1,0.1-0.1,0.2c0,0.1-0.1,0.1-0.1,0.2c0,0.1,0,0.1-0.1,0.2C0,12.9,0,13,0,13.1L0,13.1z"/>
	</g>
</g>
</svg>
