<?xml version="1.0" encoding="utf-8"?>
<!-- Generator: Adobe Illustrator 22.1.0, SVG Export Plug-In . SVG Version: 6.00 Build 0)  -->
<svg version="1.1" id="Laag_1" xmlns="http://www.w3.org/2000/svg" xmlns:xlink="http://www.w3.org/1999/xlink" x="0px" y="0px"
	 viewBox="0 0 67 32" style="enable-background:new 0 0 67 32;" xml:space="preserve">
<style type="text/css">
	.st0{fill:#56B2E7;}
</style>
<g>
	<path class="st0" d="M18.5,17.8c0.4-0.1,0.8-0.3,1.2-0.4c-0.8-0.4-1.6-0.6-2.5-0.6c-3.3,0-6,2.7-6,6s2.7,6,6,6
		c1.9,0,3.6-0.9,4.7-2.3h-4.6c-2,0-3.6-1.6-3.6-3.6c0-0.6,0.1-1.2,0.4-1.7C14.7,19.9,16.2,18.7,18.5,17.8z"/>
	<path class="st0" d="M17.2,30c-4,0-7.2-3.2-7.2-7.2s3.2-7.2,7.2-7.2c1.5,0,3,0.5,4.2,1.3c0.3-0.1,0.7-0.2,1-0.2
		c0.4-0.1,0.9-0.2,1.4-0.3c-1.7-1.7-4.1-2.8-6.6-2.8c-5.1,0-9.2,4.1-9.2,9.2s4.1,9.2,9.2,9.2c3.7,0,7-2.3,8.4-5.5h-2.2
		C22.1,28.6,19.8,30,17.2,30z"/>
	<path class="st0" d="M27.2,21.1c0-0.2,0-0.3,0-0.5c0-0.2,0-0.4,0-0.5c0-0.3,0-0.5,0-0.8c0.3-3.7,2.8-5.4,3.1-5.6l0.3-0.2l3.2-1.1
		L32.6,12L31,10c1.2-0.5,2.6-1,3.8-1.5c1.4-0.6,3.5-1,6.8,1.4l1.3-0.4l-3.5-2.3l-0.1-0.7c-1.8-0.6-3.5-0.5-5.3,0.2
		c-2.1,0.9-5,2-5.8,2.3l-6-0.4l-3.2-3.1l-8.3-1.8c-0.4-0.1-0.7,0-1,0.2C9.3,4.2,9.2,4.6,9.2,5v2.2l0,0.1c1.1,3.7,4.7,5.3,4.8,5.3
		l0.2,0.1h3c3.7,0,6.9,2,8.7,4.9c-0.3,0.1-0.7,0.1-1,0.2c-0.8,0.1-1.5,0.3-2.1,0.4c-0.5,0.1-0.9,0.2-1.4,0.3
		c-0.9,0.2-1.7,0.5-2.3,0.7c-2.6,1-3.3,2-3.5,2.5c-0.2,0.3-0.3,0.6-0.3,1c0,1.1,0.9,2.1,2.1,2.1h3.2h2.2h1.3h1.4v-0.3l0.8-0.7
		c0,0,0.2-0.2,0.4-0.6C26.8,22.8,27.1,22.1,27.2,21.1L27.2,21.1z"/>
	<path class="st0" d="M44.1,24.4l1.8-1.8l1.8-1.8l1.5-1.5l0,0l0.3-0.3c0,0,0,0,0,0l1.8-1.8l0.4-0.4c0.1-0.1,0.3-0.3,0.6-0.6
		c0.3-0.4,0.6-1,0.9-1.8c0.4-1,0.6-2.3,0.6-4.1l0-0.1c0-0.2-0.8-5-9.6-9.7L43.6,0l-3.5,2.2l0.7,4L45,9c0.2,0.1,0.9,0.7,0.9,1.1
		l-0.8,0.3L43,11.1l-6.7,2.2l-3.2,1l-1.9,0.6L31.2,15c-0.1,0.1-2.1,1.4-2.4,4.4c0,0.2,0,0.4,0,0.6c0,1.9-0.4,3.1-0.8,3.9
		c-0.3,0.5-0.5,0.8-0.6,1h-0.1V25L27,25.3v3.5h10.4l2.1-0.7c0.7-0.2,1.6-0.7,2.1-1.2c0.1-0.1,0.1-0.1,0.2-0.2l1.3-1.3L44.1,24.4z
		 M50.3,10h1.5c0,0.1,0.1,0.2,0.1,0.2c0,0.8,0,1.4-0.1,2L50.3,11C50.3,11,50.3,10,50.3,10z"/>
	<path class="st0" d="M54.6,14.9c-0.2,0.7-0.6,1.2-0.9,1.8c2.1,1.3,3.4,3.6,3.4,6.1c0,4-3.2,7.2-7.2,7.2c-2.5,0-4.7-1.2-6-3.2
		l-0.9,1c-0.1,0.1-0.2,0.2-0.3,0.3c-0.1,0.1-0.1,0.1-0.2,0.2c1.7,2.3,4.4,3.8,7.4,3.8c5.1,0,9.2-4.1,9.2-9.2
		C59.1,19.5,57.3,16.6,54.6,14.9z"/>
	<path class="st0" d="M51.9,22.9c0-1-0.8-1.8-1.7-1.8l-0.2-0.4l-5.1,5.2c1,1.7,2.9,2.9,5.1,2.9c3.3,0,6-2.7,6-6c0-2.2-1.2-4.1-3-5.1
		c0,0-0.1,0.1-0.1,0.1l-2.3,2.3l0.1,0.1c1.1,0.1,2,1,2,2.2c0,1.2-1,2.2-2.2,2.2c0,0,0,0,0,0C51.2,24.5,51.9,23.8,51.9,22.9z"/>
</g>
</svg>
