<?xml version="1.0" encoding="utf-8"?>
<!-- Generator: Adobe Illustrator 22.1.0, SVG Export Plug-In . SVG Version: 6.00 Build 0)  -->
<svg version="1.1" id="Laag_1" xmlns="http://www.w3.org/2000/svg" xmlns:xlink="http://www.w3.org/1999/xlink" x="0px" y="0px"
	 viewBox="0 0 67 32" style="enable-background:new 0 0 67 32;" xml:space="preserve">
<style type="text/css">
	.st0{fill:#56B2E7;}
</style>
<g id="Document" transform="scale(1 -1)">
	<g id="Spread" transform="translate(0 -24)">
		<g id="Icon">
			<path marker-end="none" marker-start="none" class="st0" d="M7.7-7.2C7.3-6.8,7-6.3,6.8-5.8C6.4-5,6-2.2,5.3-1.7L5.1-1.5L4.5-1.2
				C3-0.3,1.7-1,1.1,0.5C0.8,1.2,1.5,2,2.2,2H31c5.8-0.2,10.4,1.3,13.9,2.9c2.2,1,4.3,1,8.1,1.1h11.1c0.7,0,1.2-0.8,0.9-1.4
				c-0.3-0.6-0.7-1.2-1.3-2C57.7-5.9,48.3-7.3,39-8H9.5C8.7-8,8.1-7.6,7.7-7.2z"/>
			<path marker-end="none" marker-start="none" class="st0" d="M30.8,4H1.5C1.3,4,1.1,4.1,1,4.4l0,0.2C1.1,5.8,2.2,7.9,3.9,8l4,0
				C7.9,8,7.9,8,8,8h4c4.7,0,9.4,0,14,0.1c4.6,0.1,9.7,0.8,13.7,3.1c1,0.6,1.8,1.2,2.7,1.9c0.2,0.2,0.3,0.5,0.1,0.7
				c-0.2,0.2-0.5,0.3-0.7,0.1C37.6,10.5,31.1,9.9,26,9.9C20.5,10,14.9,10,9.4,10c0.2,0.6,0.5,1.4,0.9,2.1C10,12.3,9.7,12.8,9.5,13
				c-0.5,1.1-0.4,3-0.3,3.3c0.3,1.3,0.4,1.8,2.6,1.5c4.7-0.5,10.2-1.8,15.5-3.8c1.8-0.4,3.5-0.5,4.4,0.4c3.3,3.1,6.2,4.1,9.9,3.1
				c1.6,1.3,4,2.5,5.9,2.5c2.6-0.8,6.5-3.7,10.4-7c3-1.3,5.4-2.9,6.8-4.1C65,8.8,65,8.6,65,8.4C64.9,8.1,64.7,8,64.5,8H53.2
				c-3.8,0.2-6.2-0.1-8.2-1C41.5,5.5,36.7,3.8,30.8,4z"/>
			<path marker-end="none" marker-start="none" class="st0" d="M37,22h-3c-0.6,0-1,0.4-1,1c0,0.5,0.4,1,1,1h5l7.6-3.1
				c-2.1-0.2-3.9-0.9-5.1-2.3C40.3,20.6,38.8,21.7,37,22z"/>
		</g>
	</g>
</g>
</svg>
