<?xml version="1.0" encoding="utf-8"?>
<!-- Generator: Adobe Illustrator 22.1.0, SVG Export Plug-In . SVG Version: 6.00 Build 0)  -->
<svg version="1.1" id="Laag_1" xmlns="http://www.w3.org/2000/svg" xmlns:xlink="http://www.w3.org/1999/xlink" x="0px" y="0px"
	 viewBox="0 0 67 32" style="enable-background:new 0 0 67 32;" xml:space="preserve">
<style type="text/css">
	.st0{fill:#56B2E7;}
</style>
<g id="g3123" transform="matrix(10.24807,0,0,10.245044,4.3537473e-5,409.60005)">
	<path id="path3125" class="st0" d="M1.1-36.9v-0.3h1v0.3c0,0,0,0.1-0.1,0.1L1.1-36.9C1.2-36.9,1.1-36.9,1.1-36.9z"/>
	<path id="path3127" class="st0" d="M4.4-36.9v-0.3h1v0.3c0,0,0,0.1-0.1,0.1L4.4-36.9C4.4-36.9,4.4-36.9,4.4-36.9z"/>
	<path id="path3129" class="st0" d="M1.2-37.2C1-37.3,1-37.5,1-37.6c0-0.2,0-0.2,0-0.5l0-0.4c0-0.1,0.1-0.3,0.2-0.4
		c0.1-0.1,0.3-0.2,0.4-0.3c0,0,0,0,0,0c-0.2,0-0.3,0-0.3-0.1c0-0.1,0.2-0.2,0.4-0.2c0,0,0,0.1,0,0.2c0,0,0,0,0.1,0
		c0.1-0.2,0.2-0.4,0.4-0.5C2.1-39.9,2.3-40,2.4-40h1.7c0.1,0,0.2,0,0.3,0.1c0.2,0.1,0.3,0.3,0.4,0.5c0,0,0.1,0,0.1,0
		c0-0.1,0-0.1,0-0.2c0.2,0,0.3,0,0.4,0.2c0,0.1-0.1,0.1-0.3,0.1c0,0,0,0,0,0C5-39.1,5.2-39,5.3-38.9c0.1,0.1,0.2,0.2,0.2,0.4l0,0.4
		c0,0.2,0,0.3,0,0.5c0,0.2,0,0.3-0.2,0.4c-0.1,0.1-1.3,0.1-2.1,0.1C2.5-37.1,1.3-37.1,1.2-37.2z M1.9-37.6c0-0.1-0.1-0.1-0.2-0.1
		l-0.4,0c-0.1,0-0.1,0-0.1,0.1c0,0.1,0,0.1,0,0.2c0.1,0.1,0.2,0.2,0.4,0.2h0.4C2.1-37.4,2-37.5,1.9-37.6z M4.2-37.4
		c0.1-0.1,0.1-0.1,0.1-0.2h-2c0,0.1,0.1,0.1,0.1,0.2c0,0,0.1,0.1,0.2,0.1H4C4-37.3,4.1-37.3,4.2-37.4z M5.2-37.5c0-0.1,0-0.1,0-0.2
		c0,0,0-0.1-0.1-0.1l-0.4,0c-0.1,0-0.2,0.1-0.2,0.1c-0.1,0.1-0.1,0.2-0.2,0.3h0.4C5-37.3,5.2-37.4,5.2-37.5z M4.3-37.9H2.2
		c0,0,0.1,0.1,0.1,0.1h1.9C4.2-37.9,4.3-37.9,4.3-37.9z M4.4-38.1H2.1c0,0,0,0,0,0.1L4.4-38.1C4.3-38,4.3-38,4.4-38.1z M2-38.2
		c-0.1-0.2-0.3-0.3-0.4-0.3c0-0.2-0.1-0.2-0.2-0.2c-0.2,0-0.2,0.2-0.2,0.4c0,0.1,0.1,0.2,0.3,0.2h0.4C1.9-38.1,2-38.1,2-38.2z
		 M4.4-38.2H2.1c0,0,0,0,0,0.1L4.4-38.2C4.4-38.2,4.4-38.2,4.4-38.2z M5.4-38.3c0-0.2-0.1-0.4-0.2-0.4c-0.1,0-0.2,0-0.2,0.2
		c-0.1,0-0.3,0.1-0.4,0.3c0,0.1,0.1,0.1,0.1,0.1h0.4C5.2-38.1,5.4-38.2,5.4-38.3z M4.3-38.3c0,0-0.1,0-0.1,0H2.3c0,0-0.1,0-0.1,0
		c0,0-0.1,0-0.1,0.1L4.3-38.3C4.4-38.3,4.3-38.3,4.3-38.3z M4.7-39.2c-0.1-0.2-0.2-0.3-0.3-0.5c-0.1-0.1-0.2-0.1-0.3-0.1H2.4
		c-0.1,0-0.2,0.1-0.3,0.1c-0.1,0.2-0.2,0.3-0.3,0.5c0.1,0.1,0.5,0.1,1.4,0.1C4.2-39.1,4.6-39.1,4.7-39.2z"/>
</g>
</svg>
